<svg width="97" height="19" viewBox="0 0 97 19" fill="none" xmlns="http://www.w3.org/2000/svg">
<path fill-rule="evenodd" clip-rule="evenodd" d="M54.1226 14.6601C54.1226 14.6601 54.458 14.6217 54.6257 14.4502C54.7935 14.2778 54.7748 13.9509 54.7748 13.9509C54.7748 13.9509 54.7562 12.4395 55.4456 12.2287C56.1351 11.9982 57.0109 13.6838 57.9426 14.3153C58.6506 14.8137 59.191 14.6985 59.191 14.6985L61.6693 14.6601C61.6693 14.6601 62.9737 14.5842 62.3588 13.5498C62.3029 13.473 62.0047 12.7843 60.5131 11.3864C58.9479 9.93129 59.1529 10.1617 61.0349 7.65263C62.1715 6.10286 62.6374 5.16496 62.4883 4.7621C62.3579 4.3798 61.5194 4.47627 61.5194 4.47627L58.7057 4.49502C58.7057 4.49502 58.5016 4.47627 58.3525 4.57095C58.2034 4.64777 58.1103 4.85768 58.1103 4.85768C58.1103 4.85768 57.6631 6.06355 57.0668 7.07828C55.8183 9.20329 55.3338 9.31852 55.1289 9.18364C54.6444 8.87726 54.7562 7.93936 54.7562 7.28908C54.7562 5.20247 55.073 4.34049 54.1599 4.12969C53.8618 4.05287 53.6382 3.9957 52.8555 3.9957C51.8493 3.97694 51.0108 3.9957 50.5263 4.22616C50.2095 4.39855 49.9673 4.74245 50.1164 4.7621C50.3027 4.78086 50.7127 4.87733 50.9363 5.18371C51.2158 5.56691 51.2158 6.4673 51.2158 6.4673C51.2158 6.4673 51.3835 8.8987 50.8245 9.20419C50.4518 9.41499 49.93 8.97373 48.812 7.04076C48.253 6.04569 47.8244 4.95415 47.8244 4.95415C47.8244 4.95415 47.7313 4.74335 47.5822 4.64777C47.4145 4.51378 47.1536 4.45572 47.1536 4.45572L44.489 4.47537C44.489 4.47537 44.0977 4.49413 43.9486 4.66563C43.8182 4.81927 43.9486 5.1453 43.9486 5.1453C43.9486 5.1453 46.0169 10.0653 48.3834 12.5342C50.5458 14.8128 53.0046 14.6592 53.0046 14.6592H54.1226V14.6601Z" fill="#2F2F2F"/>
<path fill-rule="evenodd" clip-rule="evenodd" d="M94.2849 17.1219H90.8251V9.22679H89.1133V6.515H90.8251V4.88404C90.8251 2.65199 91.796 1.33008 94.567 1.33008H96.8615V4.05967H95.4318C94.3557 4.05967 94.2849 4.43666 94.2849 5.14131V6.51419H96.88L96.5794 9.22679H94.2849V17.1219Z" fill="#2F2F2F"/>
<path fill-rule="evenodd" clip-rule="evenodd" d="M5.59322 18.0494C2.52563 18.0494 0 15.5259 0 12.4346V5.61474C0 2.5227 2.52563 0 5.59322 0H12.3364C15.426 0 17.9296 2.5227 17.9296 5.61474V12.4346C17.9296 15.5259 15.426 18.0494 12.3364 18.0494H5.59322ZM1.82719 5.61556V12.4355C1.82719 14.5266 3.51827 16.2314 5.59322 16.2314H12.3364C14.4105 16.2314 16.1024 14.5266 16.1024 12.4355V5.61556C16.1024 3.52439 14.4105 1.81962 12.3364 1.81962H5.59322C3.51827 1.81962 1.82719 3.52439 1.82719 5.61556Z" fill="#2F2F2F"/>
<path fill-rule="evenodd" clip-rule="evenodd" d="M4.30664 9.02516C4.30664 6.4336 6.40359 4.32031 8.97485 4.32031C11.5461 4.32031 13.6211 6.4336 13.6211 9.02516C13.6211 11.6159 11.5461 13.73 8.97485 13.73C6.40359 13.73 4.30664 11.6159 4.30664 9.02516ZM6.15583 9.02516C6.15583 10.5937 7.41824 11.8661 8.97485 11.8661C10.5086 11.8661 11.7719 10.5937 11.7719 9.02516C11.7719 7.4566 10.5086 6.18338 8.97485 6.18338C7.41824 6.18338 6.15583 7.4566 6.15583 9.02516Z" fill="#2F2F2F"/>
<path fill-rule="evenodd" clip-rule="evenodd" d="M13.8469 5.52449C13.0808 5.52449 12.4492 4.88871 12.4492 4.11594C12.4492 3.31937 13.0808 2.68359 13.8469 2.68359C14.6138 2.68359 15.2454 3.31937 15.2454 4.11594C15.2454 4.88871 14.6138 5.52449 13.8469 5.52449Z" fill="#2F2F2F"/>
</svg>
